<?xml version="1.0" encoding="UTF-8"?><svg id="a" xmlns="http://www.w3.org/2000/svg" viewBox="0 0 207.74 39.11"><path d="M124.52,12.67v12.05c0,1.9,1.54,3.44,3.44,3.44h5.16c-.95,0-1.72-.77-1.72-1.72V14.39c0-1.9-1.54-3.44-3.44-3.44h5.16c-.95,0-1.72-.77-1.72-1.72V4.07c0,3.8-3.08,6.88-6.88,6.88h-1.72c.95,0,1.72,.77,1.72,1.72Z" fill="none" stroke="#fff" stroke-linecap="round" stroke-linejoin="round" stroke-width="1.25"/><path d="M179.67,12.67v8.6c0,3.8,3.08,6.88,6.88,6.88h1.72c-.95,0-1.72-.77-1.72-1.72V14.39c0-1.9-1.54-3.44-3.44-3.44h-5.16c.95,0,1.72,.77,1.72,1.72Z" fill="none" stroke="#fff" stroke-linecap="round" stroke-linejoin="round" stroke-width="1.25"/><path d="M176.14,26.44V7.51c0-3.8-3.08-6.88-6.88-6.88h-1.72c.95,0,1.72,.77,1.72,1.72V14.39c0-1.9-1.54-3.44-3.44-3.44-3.8,0-6.88,3.08-6.88,6.88v3.44c0,3.8,3.08,6.88,6.88,6.88,1.9,0,3.44-1.54,3.44-3.44,0,1.9,1.54,3.44,3.44,3.44h5.16c-.95,0-1.72-.77-1.72-1.72Z" fill="none" stroke="#fff" stroke-linecap="round" stroke-linejoin="round" stroke-width="1.25"/><path d="M169.26,22.99v-6.88c0-.82-.59-1.53-1.4-1.69-.81-.16-1.62,.28-1.92,1.05-1.05,2.62-1.05,5.54,0,8.16,.31,.77,1.11,1.21,1.92,1.05s1.4-.86,1.4-1.69Z" fill="none" stroke="#fff" stroke-linecap="round" stroke-linejoin="round" stroke-width="1.25"/><path d="M148.61,24.72c0,1.9,1.54,3.44,3.44,3.44h5.16c-.95,0-1.72-.77-1.72-1.72V14.39c0-1.9-1.54-3.44-3.44-3.44h-5.16c.95,0,1.72,.77,1.72,1.72v10.32c0,.95-.77,1.72-1.72,1.72s-1.72-.77-1.72-1.72V14.39c0-1.9-1.54-3.44-3.44-3.44h-5.16c.95,0,1.72,.77,1.72,1.72v8.6c0,3.8,3.08,6.88,6.88,6.88,1.9,0,3.44-1.54,3.44-3.44Z" fill="none" stroke="#fff" stroke-linecap="round" stroke-linejoin="round" stroke-width="1.25"/><path d="M133.12,28.16c.95,0,1.72-.77,1.72-1.72" fill="none" stroke="#fff" stroke-linecap="round" stroke-linejoin="round" stroke-width="1.25"/><path d="M115.33,23.26c1.08,.53,1.65,1.73,1.38,2.9s-1.31,2-2.51,2h1.72c2.4,0,4.49-1.66,5.03-4,.54-2.34-.6-4.75-2.76-5.8-1.71-.84-3.42-1.67-5.13-2.51-1.08-.53-1.65-1.73-1.38-2.9s1.31-2,2.51-2h-1.72c-2.4,0-4.49,1.66-5.03,4s.6,4.75,2.76,5.8c1.71,.84,3.42,1.67,5.13,2.51Z" fill="none" stroke="#fff" stroke-linecap="round" stroke-linejoin="round" stroke-width="1.25"/><line x1="111.61" y1="28.16" x2="114.19" y2="28.16" fill="none" stroke="#fff" stroke-linecap="round" stroke-linejoin="round" stroke-width="1.25"/><line x1="114.19" y1="10.95" x2="115.92" y2="10.95" fill="none" stroke="#fff" stroke-linecap="round" stroke-linejoin="round" stroke-width="1.25"/><path d="M108.17,24.72c0,1.9,1.54,3.44,3.44,3.44h-3.44v-3.44Z" fill="none" stroke="#fff" stroke-linecap="round" stroke-linejoin="round" stroke-width="1.25"/><path d="M119.36,14.39v-3.44h-3.44c1.9,0,3.44,1.54,3.44,3.44Z" fill="none" stroke="#fff" stroke-linecap="round" stroke-linejoin="round" stroke-width="1.25"/><path d="M96.99,16.11c0-.95,.77-1.72,1.72-1.72s1.72,.77,1.72,1.72v1.72l4.87-4.87c-1.29-1.29-3.04-2.02-4.87-2.02s-3.44,1.54-3.44,3.44c0-1.9-1.54-3.44-3.44-3.44h-5.16c.95,0,1.72,.77,1.72,1.72v8.6c0,3.8,3.08,6.88,6.88,6.88h1.72c-.95,0-1.72-.77-1.72-1.72v-10.32Z" fill="none" stroke="#fff" stroke-linecap="round" stroke-linejoin="round" stroke-width="1.25"/><path d="M78.09,28.16c-1.14,0-1.95-.95-2.3-1.9-1.38-3.68-1.38-8,0-11.68,.36-.95,1.16-1.9,2.3-1.9,1.14,0,1.95,.95,2.3,1.9,.19,.51,.35,1.02,.49,1.54h5.06c-1.26-2.9-4.02-4.87-7.17-5.13-3.15-.26-6.19,1.22-7.92,3.87-1.73,2.65-1.86,6.03-.35,8.81,1.51,2.78,4.42,4.51,7.58,4.5" fill="none" stroke="#fff" stroke-linecap="round" stroke-linejoin="round" stroke-width="1.25"/><line x1="80.88" y1="16.11" x2="75.31" y2="16.11" fill="none" stroke="#fff" stroke-linecap="round" stroke-linejoin="round" stroke-width="1.25"/><path d="M78.09,28.16c2.7-.01,5.23-1.29,6.85-3.44" fill="none" stroke="#fff" stroke-linecap="round" stroke-linejoin="round" stroke-width="1.25"/><path d="M78.08,28.16h.01" fill="none" stroke="#fff" stroke-linecap="round" stroke-linejoin="round" stroke-width="1.25"/><path d="M66.01,17.83c0-3.8-3.08-6.88-6.88-6.88-1.9,0-3.44,1.54-3.44,3.44,0-1.9-1.54-3.44-3.44-3.44h-5.16c.95,0,1.72,.77,1.72,1.72V31.6c0,3.8,3.08,6.88,6.88,6.88h1.72c-.95,0-1.72-.77-1.72-1.72v-12.05c0,1.9,1.54,3.44,3.44,3.44,3.8,0,6.88-3.08,6.88-6.88v-3.44Z" fill="none" stroke="#fff" stroke-linecap="round" stroke-linejoin="round" stroke-width="1.25"/><path d="M38.48,24.72c0,1.9,1.54,3.44,3.44,3.44h5.16c-.95,0-1.72-.77-1.72-1.72V14.39c0-1.9-1.54-3.44-3.44-3.44h-5.16c.95,0,1.72,.77,1.72,1.72v10.32c0,.95-.77,1.72-1.72,1.72s-1.72-.77-1.72-1.72V14.39c0-1.9-1.54-3.44-3.44-3.44h-5.16c.95,0,1.72,.77,1.72,1.72v8.6c0,3.8,3.08,6.88,6.88,6.88,1.9,0,3.44-1.54,3.44-3.44Z" fill="none" stroke="#fff" stroke-linecap="round" stroke-linejoin="round" stroke-width="1.25"/><line x1="12.67" y1=".62" x2="18.64" y2=".62" fill="none" stroke="#fff" stroke-linecap="round" stroke-linejoin="round" stroke-width="1.25"/><path d="M24.72,17.83c0,5.7-4.62,10.32-10.32,10.32h10.32v-10.32Z" fill="none" stroke="#fff" stroke-linecap="round" stroke-linejoin="round" stroke-width="1.25"/><path d="M12.49,4.43c1.17-2.33,3.55-3.8,6.16-3.8h6.07c-3.95,7.91-7.91,15.82-11.86,23.73-1.17,2.33-3.55,3.8-6.16,3.8H.62c3.95-7.91,7.91-15.82,11.86-23.73Z" fill="none" stroke="#fff" stroke-linecap="round" stroke-linejoin="round" stroke-width="1.25"/><line x1="6.7" y1="28.16" x2="14.39" y2="28.16" fill="none" stroke="#fff" stroke-linecap="round" stroke-linejoin="round" stroke-width="1.25"/><path d="M2.35,10.95V.62H12.67C6.97,.62,2.35,5.25,2.35,10.95Z" fill="none" stroke="#fff" stroke-linecap="round" stroke-linejoin="round" stroke-width="1.25"/><path d="M167.54,.62c-3.7,.02-4.3,1.97-1.8,5.86,2.5,3.89,3.68,4.23,3.52,1.03" fill="none" stroke="#fff" stroke-linecap="round" stroke-linejoin="round" stroke-width="1.25"/><path d="M206.4,16.11c-1.9-4.36-6.97-6.34-11.33-4.44-4.36,1.9-6.34,6.97-4.44,11.33,1.9,4.35,6.97,6.34,11.33,4.44,4.35-1.9,6.34-6.97,4.44-11.33Z" fill="none" stroke="#fff" stroke-linecap="round" stroke-linejoin="round" stroke-width="1.25"/><circle cx="183.03" cy="5.79" r="3.44" fill="none" stroke="#fff" stroke-linecap="round" stroke-linejoin="round" stroke-width="1.25"/><path d="M88.38,10.95c-.95,0-1.72,.77-1.72,1.72" fill="none" stroke="#fff" stroke-linecap="round" stroke-linejoin="round" stroke-width="1.25"/><path d="M133.12,10.95c.95,0,1.72-.77,1.72-1.72" fill="none" stroke="#fff" stroke-linecap="round" stroke-linejoin="round" stroke-width="1.25"/><path d="M188.19,28.16c.95,0,1.72-.77,1.72-1.72" fill="none" stroke="#fff" stroke-linecap="round" stroke-linejoin="round" stroke-width="1.25"/><path d="M98.71,28.16c.95,0,1.72-.77,1.72-1.72" fill="none" stroke="#fff" stroke-linecap="round" stroke-linejoin="round" stroke-width="1.25"/><circle cx="31.6" cy="5.79" r="3.44" fill="none" stroke="#fff" stroke-linecap="round" stroke-linejoin="round" stroke-width="1.25"/><circle cx="41.92" cy="5.79" r="3.44" fill="none" stroke="#fff" stroke-linecap="round" stroke-linejoin="round" stroke-width="1.25"/><path d="M75.31,16.11c2.5,0,5.57,.38,7.83,1.71,2.73,1.61,3.45,4.15,1.8,6.89" fill="none" stroke="#fff" stroke-linecap="round" stroke-linejoin="round" stroke-width="1.25"/><path d="M117.64,16.11c.95,0,1.72-.77,1.72-1.72" fill="none" stroke="#fff" stroke-linecap="round" stroke-linejoin="round" stroke-width="1.25"/><path d="M24.72,17.83c0-1.9-1.54-3.44-3.44-3.44" fill="none" stroke="#fff" stroke-linecap="round" stroke-linejoin="round" stroke-width="1.25"/><path d="M26.44,10.95c-.95,0-1.72,.77-1.72,1.72" fill="none" stroke="#fff" stroke-linecap="round" stroke-linejoin="round" stroke-width="1.25"/><path d="M55.69,22.99v-6.88c0-.82,.59-1.53,1.4-1.69,.81-.16,1.62,.28,1.92,1.05,1.05,2.62,1.05,5.54,0,8.16-.31,.77-1.11,1.21-1.92,1.05s-1.4-.86-1.4-1.69Z" fill="none" stroke="#fff" stroke-linecap="round" stroke-linejoin="round" stroke-width="1.25"/><line x1="47.09" y1="31.37" x2=".62" y2="31.37" fill="none" stroke="#fff" stroke-linecap="round" stroke-linejoin="round" stroke-width="1.25"/><line x1="207.12" y1="31.37" x2="57.41" y2="31.37" fill="none" stroke="#fff" stroke-linecap="round" stroke-linejoin="round" stroke-width="1.25"/><path d="M201.19,14.83c1.02,3.03,1.02,6.41,0,9.44-.39,1.15-1.37,2.16-2.68,2.16s-2.29-1.01-2.68-2.16c-1.02-3.03-1.02-6.41,0-9.44,.39-1.15,1.37-2.16,2.68-2.16s2.29,1.01,2.68,2.16Z" fill="none" stroke="#fff" stroke-linecap="round" stroke-linejoin="round" stroke-width="1.25"/></svg>