<?xml version="1.0" encoding="UTF-8"?>
<svg id="text_white" xmlns="http://www.w3.org/2000/svg" version="1.1" viewBox="0 0 836.6 163.4">
  <!-- Generator: Adobe Illustrator 29.1.0, SVG Export Plug-In . SVG Version: 2.1.0 Build 142)  -->
  <defs>
    <style>
      .st0 {
        fill: none;
        stroke: #3a589a;
        stroke-linecap: round;
        stroke-linejoin: round;
        stroke-width: 5px;
      }
    </style>
  </defs>
  <path class="st0" d="M501,54.7v48.2c0,7.6,6.2,13.8,13.8,13.8h20.6c-3.8,0-6.9-3.1-6.9-6.9v-48.2c0-7.6-6.2-13.8-13.8-13.8h20.6c-3.8,0-6.9-3.1-6.9-6.9v-20.6c0,15.2-12.3,27.5-27.5,27.5h-6.9c3.8,0,6.9,3.1,6.9,6.9Z"/>
  <path class="st0" d="M721.6,54.7v34.4c0,15.2,12.3,27.5,27.5,27.5h6.9c-3.8,0-6.9-3.1-6.9-6.9v-48.2c0-7.6-6.2-13.8-13.8-13.8h-20.6c3.8,0,6.9,3.1,6.9,6.9Z"/>
  <path class="st0" d="M707.5,109.7V34c0-15.2-12.3-27.5-27.5-27.5h-6.9c3.8,0,6.9,3.1,6.9,6.9v48.2c0-7.6-6.2-13.8-13.8-13.8-15.2,0-27.5,12.3-27.5,27.5v13.8c0,15.2,12.3,27.5,27.5,27.5s13.8-6.2,13.8-13.8c0,7.6,6.2,13.8,13.8,13.8h20.6c-3.8,0-6.9-3.1-6.9-6.9Z"/>
  <path class="st0" d="M679.9,96v-27.5c0-3.3-2.3-6.1-5.6-6.8-3.2-.6-6.5,1.1-7.7,4.2-4.2,10.5-4.2,22.2,0,32.6,1.2,3.1,4.5,4.8,7.7,4.2s5.6-3.5,5.6-6.8Z"/>
  <path class="st0" d="M597.3,102.8c0,7.6,6.2,13.8,13.8,13.8h20.6c-3.8,0-6.9-3.1-6.9-6.9v-48.2c0-7.6-6.2-13.8-13.8-13.8h-20.6c3.8,0,6.9,3.1,6.9,6.9v41.3c0,3.8-3.1,6.9-6.9,6.9s-6.9-3.1-6.9-6.9v-34.4c0-7.6-6.2-13.8-13.8-13.8h-20.6c3.8,0,6.9,3.1,6.9,6.9v34.4c0,15.2,12.3,27.5,27.5,27.5s13.8-6.2,13.8-13.8Z"/>
  <path class="st0" d="M535.4,116.6c3.8,0,6.9-3.1,6.9-6.9"/>
  <path class="st0" d="M464.2,97c4.3,2.1,6.6,6.9,5.5,11.6s-5.3,8-10.1,8h6.9c9.6,0,17.9-6.6,20.1-16,2.2-9.4-2.4-19-11-23.2-6.8-3.3-13.7-6.7-20.5-10-4.3-2.1-6.6-6.9-5.5-11.6s5.3-8,10.1-8h-6.9c-9.6,0-17.9,6.6-20.1,16s2.4,19,11,23.2c6.8,3.3,13.7,6.7,20.5,10Z"/>
  <line class="st0" x1="449.3" y1="116.6" x2="459.7" y2="116.6"/>
  <line class="st0" x1="459.7" y1="47.8" x2="466.6" y2="47.8"/>
  <path class="st0" d="M435.6,102.8c0,7.6,6.2,13.8,13.8,13.8h-13.8v-13.8Z"/>
  <path class="st0" d="M480.3,61.5v-13.8h-13.8c7.6,0,13.8,6.2,13.8,13.8Z"/>
  <path class="st0" d="M390.8,68.4c0-3.8,3.1-6.9,6.9-6.9s6.9,3.1,6.9,6.9v6.9c6.5-6.5,13-13,19.5-19.5-5.2-5.2-12.2-8.1-19.5-8.1s-13.8,6.2-13.8,13.8c0-7.6-6.2-13.8-13.8-13.8h-20.6c3.8,0,6.9,3.1,6.9,6.9v34.4c0,15.2,12.3,27.5,27.5,27.5h6.9c-3.8,0-6.9-3.1-6.9-6.9v-41.3Z"/>
  <path class="st0" d="M315.3,116.6c-4.6,0-7.8-3.8-9.2-7.6-5.5-14.7-5.5-32,0-46.7,1.4-3.8,4.6-7.6,9.2-7.6,4.6,0,7.8,3.8,9.2,7.6.8,2,1.4,4.1,1.9,6.2h20.2c-5.1-11.6-16.1-19.5-28.7-20.5-12.6-1.1-24.8,4.9-31.7,15.5-6.9,10.6-7.5,24.1-1.4,35.2,6,11.1,17.7,18,30.3,18"/>
  <line class="st0" x1="326.4" y1="68.4" x2="304.1" y2="68.4"/>
  <path class="st0" d="M315.3,116.6c10.8,0,20.9-5.1,27.4-13.8"/>
  <path class="st0" d="M315.2,116.6h0"/>
  <path class="st0" d="M266.9,75.3c0-15.2-12.3-27.5-27.5-27.5s-13.8,6.2-13.8,13.8c0-7.6-6.2-13.8-13.8-13.8h-20.6c3.8,0,6.9,3.1,6.9,6.9v75.7c0,15.2,12.3,27.5,27.5,27.5h6.9c-3.8,0-6.9-3.1-6.9-6.9v-48.2c0,7.6,6.2,13.8,13.8,13.8,15.2,0,27.5-12.3,27.5-27.5v-13.8Z"/>
  <path class="st0" d="M156.8,102.8c0,7.6,6.2,13.8,13.8,13.8h20.6c-3.8,0-6.9-3.1-6.9-6.9v-48.2c0-7.6-6.2-13.8-13.8-13.8h-20.6c3.8,0,6.9,3.1,6.9,6.9v41.3c0,3.8-3.1,6.9-6.9,6.9s-6.9-3.1-6.9-6.9v-34.4c0-7.6-6.2-13.8-13.8-13.8h-20.6c3.8,0,6.9,3.1,6.9,6.9v34.4c0,15.2,12.3,27.5,27.5,27.5s13.8-6.2,13.8-13.8Z"/>
  <line class="st0" x1="53.6" y1="6.5" x2="77.5" y2="6.5"/>
  <path class="st0" d="M101.8,75.3c0,22.8-18.5,41.3-41.3,41.3h41.3v-41.3Z"/>
  <path class="st0" d="M52.8,21.7c4.7-9.3,14.2-15.2,24.6-15.2h24.3c-15.8,31.6-31.6,63.3-47.5,94.9-4.7,9.3-14.2,15.2-24.6,15.2H5.4c15.8-31.6,31.6-63.3,47.5-94.9Z"/>
  <line class="st0" x1="29.7" y1="116.6" x2="60.5" y2="116.6"/>
  <path class="st0" d="M12.3,47.8V6.5h41.3C30.8,6.5,12.3,25,12.3,47.8Z"/>
  <path class="st0" d="M673,6.5c-14.8,0-17.2,7.9-7.2,23.4,10,15.5,14.7,16.9,14.1,4.1"/>
  <path class="st0" d="M828.5,68.4c-7.6-17.4-27.9-25.4-45.3-17.8-17.4,7.6-25.4,27.9-17.8,45.3,7.6,17.4,27.9,25.4,45.3,17.8,17.4-7.6,25.4-27.9,17.8-45.3Z"/>
  <circle class="st0" cx="735" cy="27.1" r="13.8"/>
  <path class="st0" d="M356.4,47.8c-3.8,0-6.9,3.1-6.9,6.9"/>
  <path class="st0" d="M535.4,47.8c3.8,0,6.9-3.1,6.9-6.9"/>
  <path class="st0" d="M755.6,116.6c3.8,0,6.9-3.1,6.9-6.9"/>
  <path class="st0" d="M397.7,116.6c3.8,0,6.9-3.1,6.9-6.9"/>
  <circle class="st0" cx="129.3" cy="27.1" r="13.8"/>
  <circle class="st0" cx="170.6" cy="27.1" r="13.8"/>
  <path class="st0" d="M304.1,68.4c10,0,22.3,1.5,31.3,6.8,10.9,6.4,13.8,16.6,7.2,27.6"/>
  <path class="st0" d="M473.4,68.4c3.8,0,6.9-3.1,6.9-6.9"/>
  <path class="st0" d="M101.8,75.3c0-7.6-6.2-13.8-13.8-13.8"/>
  <path class="st0" d="M108.6,47.8c-3.8,0-6.9,3.1-6.9,6.9"/>
  <path class="st0" d="M225.6,96v-27.5c0-3.3,2.3-6.1,5.6-6.8,3.2-.6,6.5,1.1,7.7,4.2,4.2,10.5,4.2,22.2,0,32.6-1.2,3.1-4.5,4.8-7.7,4.2s-5.6-3.5-5.6-6.8Z"/>
  <line class="st0" x1="191.2" y1="129.5" x2="5.4" y2="129.5"/>
  <line class="st0" x1="831.4" y1="129.5" x2="232.5" y2="129.5"/>
  <path class="st0" d="M807.7,63.3c4.1,12.1,4.1,25.6,0,37.8-1.5,4.6-5.5,8.7-10.7,8.7s-9.2-4-10.7-8.7c-4.1-12.1-4.1-25.6,0-37.8,1.5-4.6,5.5-8.7,10.7-8.7s9.2,4,10.7,8.7Z"/>
</svg>